<svg width="3533" height="330" xmlns="http://www.w3.org/2000/svg" fill="none">
 <defs>
  <linearGradient id="paint0_linear_4_847" x1="0.5" y1="1" x2="0.5" y2="0">
   <stop stop-color="#9696C8"/>
   <stop offset="1" stop-color="#3232C8"/>
  </linearGradient>
 </defs>
 <g>
  <title>Layer 1</title>
  <path d="m1771.86,160.04363c-116.96,32.141 -230.22,89.751 -346.86,124.692c-166.16,49.806 -339.19,52.814 -505.077,1.162c-161.213,-50.074 -328.374,-172.204 -487.671,-234.2523c-141.267,-55.04804 -295.502,-77.7166 -432.252,-8.9363l0,294.4576l2420,-9l0,-81.47c-206.64,-115.738 -430.79,-145.706 -648.14,-86.653z" fill="url(#paint0_linear_4_847)" id="svg_1"/>
  <!-- <rect transform="rotate(180, 720, 463.75)" id="svg_2" height="270" width="1440" y="328.74997" x="0" fill="#9696c8"/> -->
  <path transform="translate(2000) scale(-1, 1)" d="m-191.14,160.04363c-116.96,32.141 -230.22,89.751 -346.86,124.692c-166.16,49.806 -339.19,52.814 -505.077,1.162c-161.213,-50.074 -330.374,-181.204 -489.671,-243.2523l-0.252,292.5213l1990,-7l0,-81.47c-206.64,-115.738 -430.79,-145.706 -648.14,-86.653z" fill="url(#paint0_linear_4_847)" id="svg_2"/>
 </g>
</svg>